<!DOCTYPE svg PUBLIC "-//W3C//DTD SVG 20010904//EN" "http://www.w3.org/TR/2001/REC-SVG-20010904/DTD/svg10.dtd">
<svg version="1.0" xmlns="http://www.w3.org/2000/svg" width="980px" height="660px" viewBox="0 0 9800 6600" preserveAspectRatio="xMidYMid meet">
<g id="layer101" fill="#050505" stroke="none">
 <path d="M3000 6589 c-1418 -124 -2613 -1172 -2925 -2564 -61 -272 -69 -361 -69 -725 0 -293 2 -352 21 -470 44 -279 105 -507 200 -745 393 -992 1246 -1736 2277 -1990 772 -190 1606 -93 2298 267 l97 51 143 -71 c624 -308 1301 -410 1993 -301 714 113 1402 483 1892 1019 459 500 740 1087 845 1765 29 189 36 614 14 825 -43 403 -153 775 -336 1135 -101 200 -177 322 -311 500 -506 674 -1254 1131 -2079 1269 -694 117 -1387 15 -2017 -295 l-142 -70 -143 70 c-382 187 -759 293 -1178 331 -132 11 -440 11 -580 -1z m556 -550 c240 -24 499 -85 717 -169 l107 -42 -52 -45 c-100 -87 -305 -300 -392 -409 -358 -446 -593 -966 -686 -1514 -36 -217 -44 -315 -44 -560 0 -245 8 -343 44 -560 120 -712 491 -1390 1030 -1879 l99 -90 -102 -39 c-298 -115 -571 -169 -898 -179 -221 -7 -383 5 -585 42 -871 161 -1632 755 -1999 1564 -478 1051 -257 2269 560 3086 460 460 1042 731 1715 798 83 9 386 6 486 -4z m3334 -14 c320 -50 583 -135 865 -278 706 -361 1229 -1019 1419 -1789 62 -250 80 -431 73 -731 -7 -307 -38 -498 -128 -775 -301 -925 -1080 -1631 -2034 -1841 -246 -54 -575 -75 -821 -52 -254 24 -519 85 -740 172 l-104 41 52 45 c100 87 305 300 392 409 405 505 635 1059 717 1729 16 131 16 540 1 680 -75 660 -313 1235 -718 1740 -88 109 -305 334 -397 413 l-48 40 108 42 c208 81 472 144 703 169 129 14 536 6 660 -14z m-1912 -554 c570 -438 948 -1095 1049 -1821 23 -172 23 -528 0 -700 -79 -566 -312 -1068 -699 -1498 -95 -106 -237 -237 -350 -324 l-78 -59 -77 59 c-373 284 -688 698 -868 1140 -141 348 -199 647 -199 1032 0 385 58 684 199 1032 153 375 408 738 704 1003 89 79 228 192 239 194 2 1 38 -26 80 -58z"/>
 </g>

</svg>